<?xml version="1.0" encoding="UTF-8"?>
<svg version="1.1" xmlns="http://www.w3.org/2000/svg" width="71" height="71">
<path d="M0 0 C8.39471691 4.92367731 13.54699955 11.87465833 16.14453125 21.2578125 C16.93415847 29.52135313 16.702269 36.78576459 13.01953125 44.3046875 C11.94010812 46.35741934 11.94010812 46.35741934 12.14453125 49.2578125 C14.63455871 51.8590019 17.2085255 54.28745595 19.87890625 56.69921875 C24.02931945 60.62234742 24.02931945 60.62234742 24.64453125 64.015625 C24.14453125 66.2578125 24.14453125 66.2578125 22.14453125 68.2578125 C19.9453125 68.7890625 19.9453125 68.7890625 17.14453125 68.2578125 C14.60871889 66.34203486 12.49532376 64.07786533 10.33203125 61.7578125 C9.73455078 61.13777344 9.13707031 60.51773438 8.52148438 59.87890625 C7.05095684 58.34955762 5.59617395 56.80509784 4.14453125 55.2578125 C3.54769531 55.61875 2.95085938 55.9796875 2.3359375 56.3515625 C-6.10676357 60.8677176 -14.47064965 61.7824221 -23.85546875 60.2578125 C-33.06482884 57.44071125 -39.30541275 52.24522037 -44.1640625 44.05078125 C-47.99263936 36.06243576 -48.18308209 26.86660593 -46.16015625 18.3203125 C-42.95880358 9.49641608 -37.25675668 3.38123875 -28.85546875 -0.7421875 C-19.73565192 -4.37228219 -8.89628248 -4.219464 0 0 Z M-34.41015625 16.16015625 C-38.33864678 21.86177629 -38.70347895 27.52785924 -37.85546875 34.2578125 C-35.73779861 41.43321909 -32.21770498 45.41769588 -25.84375 49.19921875 C-20.33766601 52.13074873 -15.02018534 51.97286409 -8.85546875 51.2578125 C-2.31044327 48.87380456 1.94782278 45.14653561 5.3046875 39.08984375 C7.90180053 33.42451346 8.16712119 27.01599336 6.53125 21.00390625 C3.79220754 14.83804415 -1.22604032 10.01398755 -7.27734375 7.0859375 C-18.61121073 3.44536205 -27.10578038 7.61573517 -34.41015625 16.16015625 Z " fill="#FF8C2D" transform="translate(46.85546875,2.7421875)"/>
</svg>
